<svg width="89" height="39" viewBox="0 0 89 39" fill="none" xmlns="http://www.w3.org/2000/svg">
<circle cx="69.3833" cy="19.1056" r="19.1056" fill="#5454D4"/>
<path d="M66.6612 25.85C66.2685 25.4573 66.2685 24.8206 66.6612 24.4279L71.9835 19.1056L66.6612 13.7833C66.2685 13.3907 66.2685 12.754 66.6612 12.3613C67.0539 11.9686 67.6906 11.9686 68.0833 12.3613L74.1166 18.3946C74.5093 18.7873 74.5093 19.424 74.1166 19.8167L68.0833 25.85C67.6906 26.2427 67.0539 26.2427 66.6612 25.85Z" fill="white"/>
<circle cx="19.1056" cy="19.1056" r="19.1056" transform="matrix(-1 0 0 1 38.2108 0)" fill="white" fill-opacity="0.2"/>
<path d="M21.8249 25.4566C22.1684 25.113 22.1684 24.556 21.8249 24.2125L17.1687 19.5563L21.8249 14.9001C22.1684 14.5566 22.1684 13.9996 21.8249 13.6561C21.4813 13.3125 20.9243 13.3125 20.5808 13.6561L15.3026 18.9343C14.959 19.2778 14.959 19.8348 15.3026 20.1784L20.5808 25.4566C20.9243 25.8001 21.4813 25.8001 21.8249 25.4566Z" fill="white"/>
</svg>
